<svg width="500" height="500" viewBox="0 0 500 500" fill="none" xmlns="http://www.w3.org/2000/svg">
<rect width="500" height="500" fill="#1E1E1E"/>
<path fillRule="evenodd" clipRule="evenodd" d="M300.621 348.11V85L230.803 108.001V211.805C230.803 215.129 230.58 218.371 230.095 221.552V221.757C227.993 236.448 221.302 249.58 211.599 259.593C208.123 263.163 204.282 266.323 200.138 269.032C198.683 269.996 197.167 270.899 195.61 271.72V415.678H235.088C253.179 415.678 269.553 408.107 281.418 395.878C292.697 384.244 299.914 368.362 300.561 350.778C300.621 349.896 300.621 349.013 300.621 348.11ZM195.609 415.678V271.719V271.699L195.549 271.731V415.677H191.507V273.733C184.905 276.72 177.749 278.612 170.221 279.188C168.583 279.332 166.926 279.393 165.268 279.393H104V415.678H195.609ZM395.181 283.231C395.181 296.342 391.562 308.592 385.276 318.933C382.628 323.304 379.495 327.346 375.977 330.998C364.112 343.227 347.739 350.778 329.667 350.799H304.664V167.145L395.16 137.343V283.21L395.181 283.231ZM178.67 176.061V124.826L104 148.71V215.888H140.082C141.052 215.888 142.022 215.847 142.993 215.765C148.349 215.354 153.403 213.795 157.931 211.353C158.84 210.861 159.73 210.327 160.599 209.773C163.045 208.173 165.309 206.306 167.35 204.213C173.071 198.324 177.013 190.568 178.266 181.93V181.807C178.529 179.919 178.67 178.011 178.67 176.061Z" fill="white"/>
</svg>
