<svg width="1266" height="501" viewBox="0 0 1266 501" fill="none" xmlns="http://www.w3.org/2000/svg">
<g clip-path="url(#clip0_323_222)">
<path d="M83.1057 0.0898438H0V83.2027H83.1057V0.0898438Z" fill="black"/>
<path d="M83.1057 249.429H0V500.77H83.1057V249.429Z" fill="#FEA0DC"/>
<path d="M0 250.43H83.1057V351.567C37.2373 351.567 0 314.326 0 268.454V250.43Z" fill="#FE191B"/>
<path d="M83.1057 500.77H0V417.657C45.8984 417.657 83.1057 454.867 83.1057 500.77Z" fill="black"/>
<path d="M166.211 83.2029H0V107.316H166.211V83.2029Z" fill="#C2FDDF"/>
<path d="M166.211 106.725H0V131.168H166.211V106.725Z" fill="#09550B"/>
<path d="M166.211 130.577H0V155.02H166.211V130.577Z" fill="#C2FDDF"/>
<path d="M166.211 154.43H0V178.873H166.211V154.43Z" fill="#09550B"/>
<path d="M166.211 202.134H0V226.577H166.211V202.134Z" fill="#09550B"/>
<path d="M166.211 178.282H0V202.725H166.211V178.282Z" fill="#C2FDDF"/>
<path d="M166.211 225.987H0V250.43H166.211V225.987Z" fill="#C2FDDF"/>
<path d="M249.316 250.44L249.316 500.78H261.442V250.44H249.316Z" fill="#C2FDDF"/>
<path d="M261.152 250.43V500.77H273.278V250.43H261.152Z" fill="#09550B"/>
<path d="M272.977 250.44V500.78H285.102V250.44H272.977Z" fill="#C2FDDF"/>
<path d="M284.812 250.43V500.77H296.938V250.43H284.812Z" fill="#09550B"/>
<path d="M308.473 250.43V500.77H320.598V250.43H308.473Z" fill="#09550B"/>
<path d="M296.637 250.43V500.77H308.762V250.43H296.637Z" fill="#C2FDDF"/>
<path d="M320.297 250.43V500.77H332.422V250.43H320.297Z" fill="#C2FDDF"/>
<path d="M941.008 250.43V500.77H953.133V250.43H941.008Z" fill="#FCE01E"/>
<path d="M952.84 250.43V500.77H964.965V250.43H952.84Z" fill="#09550B"/>
<path d="M964.668 250.43V500.77H976.793V250.43H964.668Z" fill="#FCE01E"/>
<path d="M976.5 250.43V500.77H988.625V250.43H976.5Z" fill="#09550B"/>
<path d="M1000.16 250.43V500.77H1012.29V250.43H1000.16Z" fill="#09550B"/>
<path d="M988.328 250.44V500.78H1000.45V250.44H988.328Z" fill="#FCE01E"/>
<path d="M1011.99 250.43V500.77H1024.11V250.43H1011.99Z" fill="#FCE01E"/>
<path d="M1192.55 -0.00991821V335.025H1205.51V-0.00991821H1192.55Z" fill="black"/>
<path d="M1205.19 -0.000152588V335.035H1218.16V-0.000152588H1205.19Z" fill="#C2FDDF"/>
<path d="M1217.85 -3.05176e-05V335.035H1230.81V-3.05176e-05H1217.85Z" fill="black"/>
<path d="M1230.5 -3.05176e-05V335.035H1243.47V-3.05176e-05H1230.5Z" fill="#C2FDDF"/>
<path d="M1255.8 -3.05176e-05V335.035H1268.77V-3.05176e-05H1255.8Z" fill="#C2FDDF"/>
<path d="M1243.16 -0.00979614V335.025H1256.13V-0.00979614H1243.16Z" fill="black"/>
<path d="M415.199 0.0900726V83.2029H442.904V0.0900726H415.199Z" fill="#C2FDDF"/>
<path d="M442.23 0.0900726V83.2029H469.936V0.0900726H442.23Z" fill="#FE191B"/>
<path d="M469.266 0.0900726V83.2029H496.971V0.0900726H469.266Z" fill="#C2FDDF"/>
<path d="M496.301 0.0900726V83.2029H524.006V0.0900726H496.301Z" fill="#FE191B"/>
<path d="M550.371 0.0900726V83.2029H578.076V0.0900726H550.371Z" fill="#FE191B"/>
<path d="M523.336 0.0900726V83.2029H551.041V0.0900726H523.336Z" fill="#C2FDDF"/>
<path d="M578.406 0.0900726V83.2029H606.111V0.0900726H578.406Z" fill="#C2FDDF"/>
<path d="M41.0522 83.2027H0V0.0898438H41.0522L83.1057 41.6462L41.0522 83.2027Z" fill="#09550B"/>
<path d="M166.211 0.0900879H83.1055V83.2029H166.211V0.0900879Z" fill="black"/>
<path d="M249.317 250.43H83.1055V416.655H249.317V250.43Z" fill="#09550B"/>
<path d="M332.422 250.43H166.211V83.2029" fill="white"/>
<path d="M166.211 83.2029H332.422V250.43" fill="#DE5FF6"/>
<path d="M1024.15 166.606H1192.55V334.914" fill="white"/>
<path d="M1190.36 334.914H1024.15V166.606" fill="#FEA0DC"/>
<path d="M774.925 166.816H605.77V0.0900879" fill="#09550B"/>
<path d="M605.77 0.0900879H774.925V166.816" fill="black"/>
<path d="M249.317 416.655H83.1055V500.769H249.317V416.655Z" fill="#FCE01E"/>
<path d="M116.348 416.655H83.1055V437.684H116.348V416.655Z" fill="#C2FDDF"/>
<path d="M149.59 437.684H83.1055V458.713H149.59V437.684Z" fill="#C2FDDF"/>
<path d="M182.832 458.712H83.1055V479.741H182.832V458.712Z" fill="#C2FDDF"/>
<path d="M216.075 479.741H83.1055V500.77H216.075V479.741Z" fill="#C2FDDF"/>
<path d="M941.137 0.0900879H774.926V84.2043H941.137V0.0900879Z" fill="#FCE01E"/>
<path d="M808.168 0.0900879H774.926V21.1186H808.168V0.0900879Z" fill="#FE191B"/>
<path d="M841.41 21.1187H774.926V42.1472H841.41V21.1187Z" fill="#FE191B"/>
<path d="M874.653 42.1472H774.926V63.1758H874.653V42.1472Z" fill="#FE191B"/>
<path d="M907.895 63.1758H774.926V84.2043H907.895V63.1758Z" fill="#FE191B"/>
<path d="M605.769 416.655H332.422V500.769H605.769V416.655Z" fill="#C2FDDF"/>
<path d="M605.772 250.43H468.848V416.655H605.772V250.43Z" fill="#FE191B"/>
<path d="M469.596 250.43H332.422V416.655H469.596V250.43Z" fill="#C2FDDF"/>
<path d="M423.538 500.769H332.422L423.538 416.655V500.769Z" fill="#09550B"/>
<path d="M515.655 500.769H424.539L515.655 416.655V500.769Z" fill="#FEA0DC"/>
<path d="M605.772 500.769H514.656L605.772 416.655V500.769Z" fill="#FCE01E"/>
<path d="M1024.3 166.816H604.508V250.43H1024.3V166.816Z" fill="#DE5FF6"/>
<path d="M605.77 250.43H689.876L605.77 166.816V250.43Z" fill="#FCE01E"/>
<path d="M690.348 250.43H774.455L690.348 166.816V250.43Z" fill="#FE191B"/>
<path d="M774.926 250.43H857.631L774.926 166.816V250.43Z" fill="white"/>
<path d="M857.629 250.43H940.735L857.629 166.816V250.43Z" fill="#FEA0DC"/>
<path d="M940.805 250.43H1023.89L940.805 166.816V250.43Z" fill="black"/>
<path d="M124.158 83.2029H83.1055V0.0900879H124.158L166.211 41.6465L124.158 83.2029Z" fill="#DE5FF6"/>
<path d="M249.317 0.0900879H166.211V83.2029H249.317V0.0900879Z" fill="black"/>
<path d="M605.769 83.2029H332.422V166.816H605.769V83.2029Z" fill="#FCE01E"/>
<path d="M605.769 166.816H332.422V250.43H605.769V166.816Z" fill="white"/>
<path d="M400.731 166.816H332.395L366.568 83.2029L400.731 166.816Z" fill="#FE191B"/>
<path d="M468.817 166.816H400.48L434.654 83.2029L468.817 166.816Z" fill="black"/>
<path d="M536.903 166.816H468.566L502.74 83.2029L536.903 166.816Z" fill="#C2FDDF"/>
<path d="M332.422 0.0900879H249.316V83.2029H332.422V0.0900879Z" fill="black"/>
<path d="M207.263 83.2029H166.211V0.0900879H207.263L249.317 41.6465L207.263 83.2029Z" fill="#FEA0DC"/>
<path d="M941.027 0.160324V84.0842L1192.35 84.0842V0.160324L941.027 0.160324Z" fill="#FEA0DC"/>
<path d="M940.848 84.0842V0.160255H1041.98V0.971413C1041.98 46.8437 1004.74 84.0842 958.871 84.0842H940.848Z" fill="white"/>
<path d="M1109.24 84.084V83.2729C1109.24 37.4007 1146.48 0.160141 1192.35 0.160141V84.084H1109.24Z" fill="#C2FDDF"/>
<path d="M857.852 250.46H774.746V334.264H857.852V250.46Z" fill="black"/>
<path d="M815.798 334.264H774.746V250.46H815.798L857.852 292.367L815.798 334.264Z" fill="#FCE01E"/>
<path d="M940.957 250.46H857.852V334.264H940.957V250.46Z" fill="black"/>
<path d="M898.904 334.264H857.852V250.46H898.904L940.957 292.367L898.904 334.264Z" fill="#DE5FF6"/>
<path d="M774.925 250.43H605.77V274.392H774.925V250.43Z" fill="#FEA0DC"/>
<path d="M774.925 273.812H605.77V298.105H774.925V273.812Z" fill="#09550B"/>
<path d="M774.925 297.524H605.77V321.817H774.925V297.524Z" fill="#FEA0DC"/>
<path d="M774.925 321.226H605.77V345.519H774.925V321.226Z" fill="#09550B"/>
<path d="M774.925 368.65H605.77V392.943H774.925V368.65Z" fill="#09550B"/>
<path d="M774.925 344.938H605.77V369.231H774.925V344.938Z" fill="#FEA0DC"/>
<path d="M774.925 392.362H605.77V416.655H774.925V392.362Z" fill="#FEA0DC"/>
<path d="M290.869 83.2029C313.818 83.2029 332.422 64.5975 332.422 41.6465C332.422 18.6955 313.818 0.0900879 290.869 0.0900879C267.92 0.0900879 249.316 18.6955 249.316 41.6465C249.316 64.5975 267.92 83.2029 290.869 83.2029Z" fill="#FCE01E"/>
<path d="M374.625 250.72C397.884 250.72 416.739 232.003 416.739 208.914C416.739 185.824 397.884 167.107 374.625 167.107C351.367 167.107 332.512 185.824 332.512 208.914C332.512 232.003 351.367 250.72 374.625 250.72Z" fill="#09550B"/>
<path d="M469.567 250.43C492.825 250.43 511.68 231.712 511.68 208.623C511.68 185.534 492.825 166.816 469.567 166.816C446.308 166.816 427.453 185.534 427.453 208.623C427.453 231.712 446.308 250.43 469.567 250.43Z" fill="#DE5FF6"/>
<path d="M563.308 250.43C586.063 250.43 604.51 231.712 604.51 208.623C604.51 185.534 586.063 166.816 563.308 166.816C540.552 166.816 522.105 185.534 522.105 208.623C522.105 231.712 540.552 250.43 563.308 250.43Z" fill="#FEA0DC"/>
<path d="M1024.36 84.0642H774.926V166.536H1024.36V84.0642Z" fill="#09550B"/>
<path d="M817.129 166.816C840.388 166.816 859.243 148.354 859.243 125.58C859.243 102.806 840.388 84.3445 817.129 84.3445C793.871 84.3445 775.016 102.806 775.016 125.58C775.016 148.354 793.871 166.816 817.129 166.816Z" fill="#C2FDDF"/>
<path d="M901.414 166.536C924.673 166.536 943.528 148.074 943.528 125.3C943.528 102.526 924.673 84.0642 901.414 84.0642C878.156 84.0642 859.301 102.526 859.301 125.3C859.301 148.074 878.156 166.536 901.414 166.536Z" fill="#FEA0DC"/>
<path d="M983.953 166.536C1006.28 166.536 1024.37 148.074 1024.37 125.3C1024.37 102.526 1006.28 84.0642 983.953 84.0642C961.629 84.0642 943.531 102.526 943.531 125.3C943.531 148.074 961.629 166.536 983.953 166.536Z" fill="#FE191B"/>
<path d="M290.87 59.1704C300.547 59.1704 308.392 51.3247 308.392 41.6466C308.392 31.9685 300.547 24.1228 290.87 24.1228C281.193 24.1228 273.348 31.9685 273.348 41.6466C273.348 51.3247 281.193 59.1704 290.87 59.1704Z" fill="white"/>
<path d="M165.709 375.6C188.658 375.6 207.262 356.994 207.262 334.043C207.262 311.092 188.658 292.487 165.709 292.487C142.76 292.487 124.156 311.092 124.156 334.043C124.156 356.994 142.76 375.6 165.709 375.6Z" fill="white"/>
<path d="M165.71 351.567C175.387 351.567 183.232 343.721 183.232 334.043C183.232 324.365 175.387 316.52 165.71 316.52C156.032 316.52 148.188 324.365 148.188 334.043C148.188 343.721 156.032 351.567 165.71 351.567Z" fill="#C2FDDF"/>
<path d="M941.137 334.464H774.926V500.689H941.137V334.464Z" fill="#C2FDDF"/>
<path d="M857.529 459.634C880.478 459.634 899.082 441.028 899.082 418.077C899.082 395.126 880.478 376.521 857.529 376.521C834.58 376.521 815.977 395.126 815.977 418.077C815.977 441.028 834.58 459.634 857.529 459.634Z" fill="#FEA0DC"/>
<path d="M857.53 435.601C867.207 435.601 875.052 427.756 875.052 418.077C875.052 408.399 867.207 400.554 857.53 400.554C847.853 400.554 840.008 408.399 840.008 418.077C840.008 427.756 847.853 435.601 857.53 435.601Z" fill="white"/>
<path d="M415.528 0.0900879H332.422V83.2029H415.528V0.0900879Z" fill="black"/>
<path d="M373.975 83.2029C396.924 83.2029 415.528 64.5975 415.528 41.6465C415.528 18.6955 396.924 0.0900879 373.975 0.0900879C351.026 0.0900879 332.422 18.6955 332.422 41.6465C332.422 64.5975 351.026 83.2029 373.975 83.2029Z" fill="#FCE01E"/>
<path d="M373.975 59.1704C383.653 59.1704 391.498 51.3247 391.498 41.6466C391.498 31.9685 383.653 24.1228 373.975 24.1228C364.298 24.1228 356.453 31.9685 356.453 41.6466C356.453 51.3247 364.298 59.1704 373.975 59.1704Z" fill="white"/>
<path d="M1108.42 84.1543H1024.46V166.496H1108.42V84.1543Z" fill="#DE5FF6"/>
<path d="M1066.44 166.486C1089.63 166.486 1108.43 148.055 1108.43 125.32C1108.43 102.585 1089.63 84.1543 1066.44 84.1543C1043.26 84.1543 1024.46 102.585 1024.46 125.32C1024.46 148.055 1043.26 166.486 1066.44 166.486Z" fill="#FCE01E"/>
<path d="M1066.44 142.684C1076.22 142.684 1084.15 134.91 1084.15 125.32C1084.15 115.73 1076.22 107.957 1066.44 107.957C1056.67 107.957 1048.74 115.73 1048.74 125.32C1048.74 134.91 1056.67 142.684 1066.44 142.684Z" fill="#09550B"/>
<path d="M1192.39 84.1543H1108.43V166.496H1192.39V84.1543Z" fill="#DE5FF6"/>
<path d="M1150.4 166.486C1173.59 166.486 1192.38 148.055 1192.38 125.32C1192.38 102.585 1173.59 84.1543 1150.4 84.1543C1127.21 84.1543 1108.42 102.585 1108.42 125.32C1108.42 148.055 1127.21 166.486 1150.4 166.486Z" fill="#FCE01E"/>
<path d="M1150.4 142.684C1160.18 142.684 1168.1 134.91 1168.1 125.32C1168.1 115.73 1160.18 107.957 1150.4 107.957C1140.62 107.957 1132.7 115.73 1132.7 125.32C1132.7 134.91 1140.62 142.684 1150.4 142.684Z" fill="#09550B"/>
<path d="M690.347 416.655H605.77V500.769H690.347V416.655Z" fill="black"/>
<path d="M648.053 500.769C671.406 500.769 690.337 481.94 690.337 458.712C690.337 435.485 671.406 416.655 648.053 416.655C624.701 416.655 605.77 435.485 605.77 458.712C605.77 481.94 624.701 500.769 648.053 500.769Z" fill="#FE191B"/>
<path d="M648.055 476.447C657.904 476.447 665.888 468.507 665.888 458.713C665.888 448.918 657.904 440.979 648.055 440.979C638.207 440.979 630.223 448.918 630.223 458.713C630.223 468.507 638.207 476.447 648.055 476.447Z" fill="#C2FDDF"/>
<path d="M774.925 416.655H690.348V500.769H774.925V416.655Z" fill="black"/>
<path d="M732.631 500.769C755.984 500.769 774.915 481.94 774.915 458.712C774.915 435.485 755.984 416.655 732.631 416.655C709.279 416.655 690.348 435.485 690.348 458.712C690.348 481.94 709.279 500.769 732.631 500.769Z" fill="#FE191B"/>
<path d="M732.63 476.447C742.478 476.447 750.462 468.507 750.462 458.713C750.462 448.918 742.478 440.979 732.63 440.979C722.781 440.979 714.797 448.918 714.797 458.713C714.797 468.507 722.781 476.447 732.63 476.447Z" fill="#C2FDDF"/>
<path d="M537.68 291.062L495.199 333.546L537.68 376.03L580.16 333.546L537.68 291.062Z" fill="white"/>
<path d="M332.422 250.43V416.655H469.596C469.596 324.851 408.178 250.43 332.422 250.43Z" fill="#FEA0DC"/>
<path d="M332.422 334.544V416.655H401.51C401.51 371.304 370.58 334.544 332.422 334.544Z" fill="white"/>
<path d="M1024.19 501H1153.34V334.774H1024.19V501Z" fill="#DE5FF6"/>
<path d="M1152.63 501H1282V334.774H1152.63V501Z" fill="#C2FDDF"/>
<path d="M1048.34 417.887L1088.41 375.399L1128.48 417.887L1088.41 460.375L1048.34 417.887Z" fill="#FE191B"/>
<path d="M1282 501V334.774H1152.62C1152.62 426.579 1210.55 501 1282 501Z" fill="#09550B"/>
<path d="M1282 416.886V334.774H1216.84C1216.84 380.126 1246.01 416.886 1282 416.886Z" fill="#DE5FF6"/>
</g>
<defs>
<clipPath id="clip0_323_222">
<rect width="1282" height="501" fill="white"/>
</clipPath>
</defs>
</svg>
